<?xml version="1.0" encoding="UTF-8"?>
<svg xmlns="http://www.w3.org/2000/svg" width="537" height="37">
   <defs>
      <style type="text/css">
    @namespace "http://www.w3.org/2000/svg";
    .line                 {fill: none; stroke: #003300; stroke-width: 1;}
    .bold-line            {stroke: #001400; shape-rendering: crispEdges; stroke-width: 2;}
    .thin-line            {stroke: #001F00; shape-rendering: crispEdges}
    .filled               {fill: #003300; stroke: none;}
    text.terminal         {font-family: Verdana, Sans-serif;
                            font-size: 12px;
                            fill: #001400;
                            font-weight: bold;
                          }
    text.nonterminal      {font-family: Verdana, Sans-serif;
                            font-size: 12px;
                            fill: #001A00;
                            font-weight: normal;
                          }
    text.regexp           {font-family: Verdana, Sans-serif;
                            font-size: 12px;
                            fill: #001F00;
                            font-weight: normal;
                          }
    rect, circle, polygon {fill: #003300; stroke: #003300;}
    rect.terminal         {fill: #4DFF4D; stroke: #003300; stroke-width: 1;}
    rect.nonterminal      {fill: #9EFF9E; stroke: #003300; stroke-width: 1;}
    rect.text             {fill: none; stroke: none;}
    polygon.regexp        {fill: #C7FFC7; stroke: #003300; stroke-width: 1;}
  </style>
   </defs>
   <polygon points="9 17 1 13 1 21"/>
   <polygon points="17 17 9 13 9 21"/>
   <rect x="31" y="3" width="68" height="32" rx="10"/>
   <rect x="29"
          y="1"
          width="68"
          height="32"
          class="terminal"
          rx="10"/>
   <text class="terminal" x="39" y="21"> asking</text>
   <a xmlns:xlink="http://www.w3.org/1999/xlink"
       xlink:href="#MarketOffer"
       xlink:title="MarketOffer">
      <rect x="119" y="3" width="94" height="32"/>
      <rect x="117" y="1" width="94" height="32" class="nonterminal"/>
      <text class="nonterminal" x="127" y="21">MarketOffer</text>
   </a>
   <rect x="233" y="3" width="206" height="32" rx="10"/>
   <rect x="231"
          y="1"
          width="206"
          height="32"
          class="terminal"
          rx="10"/>
   <text class="terminal" x="241" y="21"> with reservation to sell out</text>
   <a xmlns:xlink="http://www.w3.org/1999/xlink"
       xlink:href="#Item"
       xlink:title="Item">
      <rect x="459" y="3" width="50" height="32"/>
      <rect x="457" y="1" width="50" height="32" class="nonterminal"/>
      <text class="nonterminal" x="467" y="21">Item</text>
   </a>
   <path class="line"
          d="m17 17 h2 m0 0 h10 m68 0 h10 m0 0 h10 m94 0 h10 m0 0 h10 m206 0 h10 m0 0 h10 m50 0 h10 m3 0 h-3"/>
   <polygon points="527 17 535 13 535 21"/>
   <polygon points="527 17 519 13 519 21"/>
</svg>
