<?xml version="1.0" encoding="UTF-8"?>
<svg xmlns="http://www.w3.org/2000/svg" width="371" height="37">
   <defs>
      <style type="text/css">
    @namespace "http://www.w3.org/2000/svg";
    .line                 {fill: none; stroke: #003300; stroke-width: 1;}
    .bold-line            {stroke: #001400; shape-rendering: crispEdges; stroke-width: 2;}
    .thin-line            {stroke: #001F00; shape-rendering: crispEdges}
    .filled               {fill: #003300; stroke: none;}
    text.terminal         {font-family: Verdana, Sans-serif;
                            font-size: 12px;
                            fill: #001400;
                            font-weight: bold;
                          }
    text.nonterminal      {font-family: Verdana, Sans-serif;
                            font-size: 12px;
                            fill: #001A00;
                            font-weight: normal;
                          }
    text.regexp           {font-family: Verdana, Sans-serif;
                            font-size: 12px;
                            fill: #001F00;
                            font-weight: normal;
                          }
    rect, circle, polygon {fill: #003300; stroke: #003300;}
    rect.terminal         {fill: #4DFF4D; stroke: #003300; stroke-width: 1;}
    rect.nonterminal      {fill: #9EFF9E; stroke: #003300; stroke-width: 1;}
    rect.text             {fill: none; stroke: none;}
    polygon.regexp        {fill: #C7FFC7; stroke: #003300; stroke-width: 1;}
  </style>
   </defs>
   <polygon points="9 17 1 13 1 21"/>
   <polygon points="17 17 9 13 9 21"/>
   <a xmlns:xlink="http://www.w3.org/1999/xlink"
       xlink:href="#ExactAmount"
       xlink:title="ExactAmount">
      <rect x="31" y="3" width="102" height="32"/>
      <rect x="29" y="1" width="102" height="32" class="nonterminal"/>
      <text class="nonterminal" x="39" y="21">ExactAmount</text>
   </a>
   <rect x="153" y="3" width="64" height="32" rx="10"/>
   <rect x="151"
          y="1"
          width="64"
          height="32"
          class="terminal"
          rx="10"/>
   <text class="terminal" x="161" y="21"> using </text>
   <a xmlns:xlink="http://www.w3.org/1999/xlink"
       xlink:href="#AssetAddress"
       xlink:title="AssetAddress">
      <rect x="237" y="3" width="106" height="32"/>
      <rect x="235" y="1" width="106" height="32" class="nonterminal"/>
      <text class="nonterminal" x="245" y="21">AssetAddress</text>
   </a>
   <path class="line"
          d="m17 17 h2 m0 0 h10 m102 0 h10 m0 0 h10 m64 0 h10 m0 0 h10 m106 0 h10 m3 0 h-3"/>
   <polygon points="361 17 369 13 369 21"/>
   <polygon points="361 17 353 13 353 21"/>
</svg>
