<?xml version="1.0" encoding="UTF-8"?>
<svg xmlns="http://www.w3.org/2000/svg" width="399" height="37">
   <defs>
      <style type="text/css">
    @namespace "http://www.w3.org/2000/svg";
    .line                 {fill: none; stroke: #003300; stroke-width: 1;}
    .bold-line            {stroke: #001400; shape-rendering: crispEdges; stroke-width: 2;}
    .thin-line            {stroke: #001F00; shape-rendering: crispEdges}
    .filled               {fill: #003300; stroke: none;}
    text.terminal         {font-family: Verdana, Sans-serif;
                            font-size: 12px;
                            fill: #001400;
                            font-weight: bold;
                          }
    text.nonterminal      {font-family: Verdana, Sans-serif;
                            font-size: 12px;
                            fill: #001A00;
                            font-weight: normal;
                          }
    text.regexp           {font-family: Verdana, Sans-serif;
                            font-size: 12px;
                            fill: #001F00;
                            font-weight: normal;
                          }
    rect, circle, polygon {fill: #003300; stroke: #003300;}
    rect.terminal         {fill: #4DFF4D; stroke: #003300; stroke-width: 1;}
    rect.nonterminal      {fill: #9EFF9E; stroke: #003300; stroke-width: 1;}
    rect.text             {fill: none; stroke: none;}
    polygon.regexp        {fill: #C7FFC7; stroke: #003300; stroke-width: 1;}
  </style>
   </defs>
   <polygon points="9 17 1 13 1 21"/>
   <polygon points="17 17 9 13 9 21"/>
   <rect x="31" y="3" width="74" height="32" rx="10"/>
   <rect x="29"
          y="1"
          width="74"
          height="32"
          class="terminal"
          rx="10"/>
   <text class="terminal" x="39" y="21">bidding </text>
   <a xmlns:xlink="http://www.w3.org/1999/xlink"
       xlink:href="#Offer"
       xlink:title="Offer">
      <rect x="125" y="3" width="50" height="32"/>
      <rect x="123" y="1" width="50" height="32" class="nonterminal"/>
      <text class="nonterminal" x="133" y="21">Offer</text>
   </a>
   <rect x="195" y="3" width="100" height="32" rx="10"/>
   <rect x="193"
          y="1"
          width="100"
          height="32"
          class="terminal"
          rx="10"/>
   <text class="terminal" x="203" y="21">in order for </text>
   <a xmlns:xlink="http://www.w3.org/1999/xlink"
       xlink:href="#Order"
       xlink:title="Order">
      <rect x="315" y="3" width="56" height="32"/>
      <rect x="313" y="1" width="56" height="32" class="nonterminal"/>
      <text class="nonterminal" x="323" y="21">Order</text>
   </a>
   <path class="line"
          d="m17 17 h2 m0 0 h10 m74 0 h10 m0 0 h10 m50 0 h10 m0 0 h10 m100 0 h10 m0 0 h10 m56 0 h10 m3 0 h-3"/>
   <polygon points="389 17 397 13 397 21"/>
   <polygon points="389 17 381 13 381 21"/>
</svg>
