<?xml version="1.0" encoding="UTF-8"?>
<svg xmlns="http://www.w3.org/2000/svg" width="399" height="81">
   <defs>
      <style type="text/css">
    @namespace "http://www.w3.org/2000/svg";
    .line                 {fill: none; stroke: #003300; stroke-width: 1;}
    .bold-line            {stroke: #001400; shape-rendering: crispEdges; stroke-width: 2;}
    .thin-line            {stroke: #001F00; shape-rendering: crispEdges}
    .filled               {fill: #003300; stroke: none;}
    text.terminal         {font-family: Verdana, Sans-serif;
                            font-size: 12px;
                            fill: #001400;
                            font-weight: bold;
                          }
    text.nonterminal      {font-family: Verdana, Sans-serif;
                            font-size: 12px;
                            fill: #001A00;
                            font-weight: normal;
                          }
    text.regexp           {font-family: Verdana, Sans-serif;
                            font-size: 12px;
                            fill: #001F00;
                            font-weight: normal;
                          }
    rect, circle, polygon {fill: #003300; stroke: #003300;}
    rect.terminal         {fill: #4DFF4D; stroke: #003300; stroke-width: 1;}
    rect.nonterminal      {fill: #9EFF9E; stroke: #003300; stroke-width: 1;}
    rect.text             {fill: none; stroke: none;}
    polygon.regexp        {fill: #C7FFC7; stroke: #003300; stroke-width: 1;}
  </style>
   </defs>
   <polygon points="9 17 1 13 1 21"/>
   <polygon points="17 17 9 13 9 21"/>
   <a xmlns:xlink="http://www.w3.org/1999/xlink"
       xlink:href="#Expensing"
       xlink:title="Expensing">
      <rect x="51" y="3" width="84" height="32"/>
      <rect x="49" y="1" width="84" height="32" class="nonterminal"/>
      <text class="nonterminal" x="59" y="21">Expensing</text>
   </a>
   <a xmlns:xlink="http://www.w3.org/1999/xlink"
       xlink:href="#Receipting"
       xlink:title="Receipting">
      <rect x="51" y="47" width="86" height="32"/>
      <rect x="49" y="45" width="86" height="32" class="nonterminal"/>
      <text class="nonterminal" x="59" y="65">Receipting</text>
   </a>
   <a xmlns:xlink="http://www.w3.org/1999/xlink"
       xlink:href="#Experiation"
       xlink:title="Experiation">
      <rect x="177" y="3" width="92" height="32"/>
      <rect x="175" y="1" width="92" height="32" class="nonterminal"/>
      <text class="nonterminal" x="185" y="21">Experiation</text>
   </a>
   <a xmlns:xlink="http://www.w3.org/1999/xlink"
       xlink:href="#Signature"
       xlink:title="Signature">
      <rect x="289" y="3" width="82" height="32"/>
      <rect x="287" y="1" width="82" height="32" class="nonterminal"/>
      <text class="nonterminal" x="297" y="21">Signature</text>
   </a>
   <path class="line"
          d="m17 17 h2 m20 0 h10 m84 0 h10 m0 0 h2 m-126 0 h20 m106 0 h20 m-146 0 q10 0 10 10 m126 0 q0 -10 10 -10 m-136 10 v24 m126 0 v-24 m-126 24 q0 10 10 10 m106 0 q10 0 10 -10 m-116 10 h10 m86 0 h10 m20 -44 h10 m92 0 h10 m0 0 h10 m82 0 h10 m3 0 h-3"/>
   <polygon points="389 17 397 13 397 21"/>
   <polygon points="389 17 381 13 381 21"/>
</svg>
