<?xml version="1.0" encoding="UTF-8"?>
<svg xmlns="http://www.w3.org/2000/svg" width="537" height="37">
   <defs>
      <style type="text/css">
    @namespace "http://www.w3.org/2000/svg";
    .line                 {fill: none; stroke: #003300; stroke-width: 1;}
    .bold-line            {stroke: #001400; shape-rendering: crispEdges; stroke-width: 2;}
    .thin-line            {stroke: #001F00; shape-rendering: crispEdges}
    .filled               {fill: #003300; stroke: none;}
    text.terminal         {font-family: Verdana, Sans-serif;
                            font-size: 12px;
                            fill: #001400;
                            font-weight: bold;
                          }
    text.nonterminal      {font-family: Verdana, Sans-serif;
                            font-size: 12px;
                            fill: #001A00;
                            font-weight: normal;
                          }
    text.regexp           {font-family: Verdana, Sans-serif;
                            font-size: 12px;
                            fill: #001F00;
                            font-weight: normal;
                          }
    rect, circle, polygon {fill: #003300; stroke: #003300;}
    rect.terminal         {fill: #4DFF4D; stroke: #003300; stroke-width: 1;}
    rect.nonterminal      {fill: #9EFF9E; stroke: #003300; stroke-width: 1;}
    rect.text             {fill: none; stroke: none;}
    polygon.regexp        {fill: #C7FFC7; stroke: #003300; stroke-width: 1;}
  </style>
   </defs>
   <polygon points="9 17 1 13 1 21"/>
   <polygon points="17 17 9 13 9 21"/>
   <rect x="31" y="3" width="182" height="32" rx="10"/>
   <rect x="29"
          y="1"
          width="182"
          height="32"
          class="terminal"
          rx="10"/>
   <text class="terminal" x="39" y="21">confirming the expense </text>
   <a xmlns:xlink="http://www.w3.org/1999/xlink"
       xlink:href="#Expense"
       xlink:title="Expense">
      <rect x="233" y="3" width="74" height="32"/>
      <rect x="231" y="1" width="74" height="32" class="nonterminal"/>
      <text class="nonterminal" x="241" y="21">Expense</text>
   </a>
   <rect x="327" y="3" width="96" height="32" rx="10"/>
   <rect x="325"
          y="1"
          width="96"
          height="32"
          class="terminal"
          rx="10"/>
   <text class="terminal" x="335" y="21"> paying for </text>
   <a xmlns:xlink="http://www.w3.org/1999/xlink"
       xlink:href="#Receipt"
       xlink:title="Receipt">
      <rect x="443" y="3" width="66" height="32"/>
      <rect x="441" y="1" width="66" height="32" class="nonterminal"/>
      <text class="nonterminal" x="451" y="21">Receipt</text>
   </a>
   <path class="line"
          d="m17 17 h2 m0 0 h10 m182 0 h10 m0 0 h10 m74 0 h10 m0 0 h10 m96 0 h10 m0 0 h10 m66 0 h10 m3 0 h-3"/>
   <polygon points="527 17 535 13 535 21"/>
   <polygon points="527 17 519 13 519 21"/>
</svg>
