<?xml version="1.0" encoding="UTF-8"?>
<svg xmlns="http://www.w3.org/2000/svg" width="339" height="169">
   <defs>
      <style type="text/css">
    @namespace "http://www.w3.org/2000/svg";
    .line                 {fill: none; stroke: #003300; stroke-width: 1;}
    .bold-line            {stroke: #001400; shape-rendering: crispEdges; stroke-width: 2;}
    .thin-line            {stroke: #001F00; shape-rendering: crispEdges}
    .filled               {fill: #003300; stroke: none;}
    text.terminal         {font-family: Verdana, Sans-serif;
                            font-size: 12px;
                            fill: #001400;
                            font-weight: bold;
                          }
    text.nonterminal      {font-family: Verdana, Sans-serif;
                            font-size: 12px;
                            fill: #001A00;
                            font-weight: normal;
                          }
    text.regexp           {font-family: Verdana, Sans-serif;
                            font-size: 12px;
                            fill: #001F00;
                            font-weight: normal;
                          }
    rect, circle, polygon {fill: #003300; stroke: #003300;}
    rect.terminal         {fill: #4DFF4D; stroke: #003300; stroke-width: 1;}
    rect.nonterminal      {fill: #9EFF9E; stroke: #003300; stroke-width: 1;}
    rect.text             {fill: none; stroke: none;}
    polygon.regexp        {fill: #C7FFC7; stroke: #003300; stroke-width: 1;}
  </style>
   </defs>
   <polygon points="9 17 1 13 1 21"/>
   <polygon points="17 17 9 13 9 21"/>
   <a xmlns:xlink="http://www.w3.org/1999/xlink"
       xlink:href="#User"
       xlink:title="User">
      <rect x="51" y="3" width="48" height="32"/>
      <rect x="49" y="1" width="48" height="32" class="nonterminal"/>
      <text class="nonterminal" x="59" y="21">User</text>
   </a>
   <a xmlns:xlink="http://www.w3.org/1999/xlink"
       xlink:href="#Ordering"
       xlink:title="Ordering">
      <rect x="119" y="3" width="74" height="32"/>
      <rect x="117" y="1" width="74" height="32" class="nonterminal"/>
      <text class="nonterminal" x="127" y="21">Ordering</text>
   </a>
   <a xmlns:xlink="http://www.w3.org/1999/xlink"
       xlink:href="#Auto"
       xlink:title="Auto">
      <rect x="51" y="47" width="48" height="32"/>
      <rect x="49" y="45" width="48" height="32" class="nonterminal"/>
      <text class="nonterminal" x="59" y="65">Auto</text>
   </a>
   <a xmlns:xlink="http://www.w3.org/1999/xlink"
       xlink:href="#Invoicing"
       xlink:title="Invoicing">
      <rect x="139" y="47" width="76" height="32"/>
      <rect x="137" y="45" width="76" height="32" class="nonterminal"/>
      <text class="nonterminal" x="147" y="65">Invoicing</text>
   </a>
   <a xmlns:xlink="http://www.w3.org/1999/xlink"
       xlink:href="#Changing"
       xlink:title="Changing">
      <rect x="139" y="91" width="80" height="32"/>
      <rect x="137" y="89" width="80" height="32" class="nonterminal"/>
      <text class="nonterminal" x="147" y="109">Changing</text>
   </a>
   <a xmlns:xlink="http://www.w3.org/1999/xlink"
       xlink:href="#Confirming"
       xlink:title="Confirming">
      <rect x="139" y="135" width="88" height="32"/>
      <rect x="137" y="133" width="88" height="32" class="nonterminal"/>
      <text class="nonterminal" x="147" y="153">Confirming</text>
   </a>
   <rect x="267" y="47" width="24" height="32" rx="10"/>
   <rect x="265"
          y="45"
          width="24"
          height="32"
          class="terminal"
          rx="10"/>
   <text class="terminal" x="275" y="65">.</text>
   <path class="line"
          d="m17 17 h2 m20 0 h10 m48 0 h10 m0 0 h10 m74 0 h10 m0 0 h98 m-280 0 h20 m260 0 h20 m-300 0 q10 0 10 10 m280 0 q0 -10 10 -10 m-290 10 v24 m280 0 v-24 m-280 24 q0 10 10 10 m260 0 q10 0 10 -10 m-270 10 h10 m48 0 h10 m20 0 h10 m76 0 h10 m0 0 h12 m-128 0 h20 m108 0 h20 m-148 0 q10 0 10 10 m128 0 q0 -10 10 -10 m-138 10 v24 m128 0 v-24 m-128 24 q0 10 10 10 m108 0 q10 0 10 -10 m-118 10 h10 m80 0 h10 m0 0 h8 m-118 -10 v20 m128 0 v-20 m-128 20 v24 m128 0 v-24 m-128 24 q0 10 10 10 m108 0 q10 0 10 -10 m-118 10 h10 m88 0 h10 m20 -88 h10 m24 0 h10 m23 -44 h-3"/>
   <polygon points="329 17 337 13 337 21"/>
   <polygon points="329 17 321 13 321 21"/>
</svg>
