<?xml version="1.0" encoding="UTF-8"?>
<svg xmlns="http://www.w3.org/2000/svg" width="331" height="37">
   <defs>
      <style type="text/css">
    @namespace "http://www.w3.org/2000/svg";
    .line                 {fill: none; stroke: #003300; stroke-width: 1;}
    .bold-line            {stroke: #001400; shape-rendering: crispEdges; stroke-width: 2;}
    .thin-line            {stroke: #001F00; shape-rendering: crispEdges}
    .filled               {fill: #003300; stroke: none;}
    text.terminal         {font-family: Verdana, Sans-serif;
                            font-size: 12px;
                            fill: #001400;
                            font-weight: bold;
                          }
    text.nonterminal      {font-family: Verdana, Sans-serif;
                            font-size: 12px;
                            fill: #001A00;
                            font-weight: normal;
                          }
    text.regexp           {font-family: Verdana, Sans-serif;
                            font-size: 12px;
                            fill: #001F00;
                            font-weight: normal;
                          }
    rect, circle, polygon {fill: #003300; stroke: #003300;}
    rect.terminal         {fill: #4DFF4D; stroke: #003300; stroke-width: 1;}
    rect.nonterminal      {fill: #9EFF9E; stroke: #003300; stroke-width: 1;}
    rect.text             {fill: none; stroke: none;}
    polygon.regexp        {fill: #C7FFC7; stroke: #003300; stroke-width: 1;}
  </style>
   </defs>
   <polygon points="9 17 1 13 1 21"/>
   <polygon points="17 17 9 13 9 21"/>
   <rect x="31" y="3" width="94" height="32" rx="10"/>
   <rect x="29"
          y="1"
          width="94"
          height="32"
          class="terminal"
          rx="10"/>
   <text class="terminal" x="39" y="21"> account of</text>
   <a xmlns:xlink="http://www.w3.org/1999/xlink"
       xlink:href="#Exactly"
       xlink:title="Exactly">
      <rect x="145" y="3" width="64" height="32"/>
      <rect x="143" y="1" width="64" height="32" class="nonterminal"/>
      <text class="nonterminal" x="153" y="21">Exactly</text>
   </a>
   <rect x="229" y="3" width="74" height="32" rx="10"/>
   <rect x="227"
          y="1"
          width="74"
          height="32"
          class="terminal"
          rx="10"/>
   <text class="terminal" x="237" y="21"> SWOBL</text>
   <path class="line"
          d="m17 17 h2 m0 0 h10 m94 0 h10 m0 0 h10 m64 0 h10 m0 0 h10 m74 0 h10 m3 0 h-3"/>
   <polygon points="321 17 329 13 329 21"/>
   <polygon points="321 17 313 13 313 21"/>
</svg>
