<?xml version="1.0" encoding="UTF-8"?>
<svg xmlns="http://www.w3.org/2000/svg" width="541" height="37">
   <defs>
      <style type="text/css">
    @namespace "http://www.w3.org/2000/svg";
    .line                 {fill: none; stroke: #003300; stroke-width: 1;}
    .bold-line            {stroke: #001400; shape-rendering: crispEdges; stroke-width: 2;}
    .thin-line            {stroke: #001F00; shape-rendering: crispEdges}
    .filled               {fill: #003300; stroke: none;}
    text.terminal         {font-family: Verdana, Sans-serif;
                            font-size: 12px;
                            fill: #001400;
                            font-weight: bold;
                          }
    text.nonterminal      {font-family: Verdana, Sans-serif;
                            font-size: 12px;
                            fill: #001A00;
                            font-weight: normal;
                          }
    text.regexp           {font-family: Verdana, Sans-serif;
                            font-size: 12px;
                            fill: #001F00;
                            font-weight: normal;
                          }
    rect, circle, polygon {fill: #003300; stroke: #003300;}
    rect.terminal         {fill: #4DFF4D; stroke: #003300; stroke-width: 1;}
    rect.nonterminal      {fill: #9EFF9E; stroke: #003300; stroke-width: 1;}
    rect.text             {fill: none; stroke: none;}
    polygon.regexp        {fill: #C7FFC7; stroke: #003300; stroke-width: 1;}
  </style>
   </defs>
   <polygon points="9 17 1 13 1 21"/>
   <polygon points="17 17 9 13 9 21"/>
   <rect x="31" y="3" width="396" height="32" rx="10"/>
   <rect x="29"
          y="1"
          width="396"
          height="32"
          class="terminal"
          rx="10"/>
   <text class="terminal" x="39" y="21"> and the order is good when the market volume reaches</text>
   <a xmlns:xlink="http://www.w3.org/1999/xlink"
       xlink:href="#Volume"
       xlink:title="Volume">
      <rect x="447" y="3" width="66" height="32"/>
      <rect x="445" y="1" width="66" height="32" class="nonterminal"/>
      <text class="nonterminal" x="455" y="21">Volume</text>
   </a>
   <path class="line"
          d="m17 17 h2 m0 0 h10 m396 0 h10 m0 0 h10 m66 0 h10 m3 0 h-3"/>
   <polygon points="531 17 539 13 539 21"/>
   <polygon points="531 17 523 13 523 21"/>
</svg>
