<?xml version="1.0" encoding="UTF-8"?>
<svg xmlns="http://www.w3.org/2000/svg" width="307" height="37">
   <defs>
      <style type="text/css">
    @namespace "http://www.w3.org/2000/svg";
    .line                 {fill: none; stroke: #003300; stroke-width: 1;}
    .bold-line            {stroke: #001400; shape-rendering: crispEdges; stroke-width: 2;}
    .thin-line            {stroke: #001F00; shape-rendering: crispEdges}
    .filled               {fill: #003300; stroke: none;}
    text.terminal         {font-family: Verdana, Sans-serif;
                            font-size: 12px;
                            fill: #001400;
                            font-weight: bold;
                          }
    text.nonterminal      {font-family: Verdana, Sans-serif;
                            font-size: 12px;
                            fill: #001A00;
                            font-weight: normal;
                          }
    text.regexp           {font-family: Verdana, Sans-serif;
                            font-size: 12px;
                            fill: #001F00;
                            font-weight: normal;
                          }
    rect, circle, polygon {fill: #003300; stroke: #003300;}
    rect.terminal         {fill: #4DFF4D; stroke: #003300; stroke-width: 1;}
    rect.nonterminal      {fill: #9EFF9E; stroke: #003300; stroke-width: 1;}
    rect.text             {fill: none; stroke: none;}
    polygon.regexp        {fill: #C7FFC7; stroke: #003300; stroke-width: 1;}
  </style>
   </defs>
   <polygon points="9 17 1 13 1 21"/>
   <polygon points="17 17 9 13 9 21"/>
   <a xmlns:xlink="http://www.w3.org/1999/xlink"
       xlink:href="#Actors"
       xlink:title="Actors">
      <rect x="31" y="3" width="60" height="32"/>
      <rect x="29" y="1" width="60" height="32" class="nonterminal"/>
      <text class="nonterminal" x="39" y="21">Actors</text>
   </a>
   <a xmlns:xlink="http://www.w3.org/1999/xlink"
       xlink:href="#Actions"
       xlink:title="Actions">
      <rect x="111" y="3" width="66" height="32"/>
      <rect x="109" y="1" width="66" height="32" class="nonterminal"/>
      <text class="nonterminal" x="119" y="21">Actions</text>
   </a>
   <a xmlns:xlink="http://www.w3.org/1999/xlink"
       xlink:href="#Signature"
       xlink:title="Signature">
      <rect x="197" y="3" width="82" height="32"/>
      <rect x="195" y="1" width="82" height="32" class="nonterminal"/>
      <text class="nonterminal" x="205" y="21">Signature</text>
   </a>
   <path class="line"
          d="m17 17 h2 m0 0 h10 m60 0 h10 m0 0 h10 m66 0 h10 m0 0 h10 m82 0 h10 m3 0 h-3"/>
   <polygon points="297 17 305 13 305 21"/>
   <polygon points="297 17 289 13 289 21"/>
</svg>
