<?xml version="1.0" encoding="UTF-8"?>
<svg xmlns="http://www.w3.org/2000/svg" width="201" height="37">
   <defs>
      <style type="text/css">
    @namespace "http://www.w3.org/2000/svg";
    .line                 {fill: none; stroke: #003300; stroke-width: 1;}
    .bold-line            {stroke: #001400; shape-rendering: crispEdges; stroke-width: 2;}
    .thin-line            {stroke: #001F00; shape-rendering: crispEdges}
    .filled               {fill: #003300; stroke: none;}
    text.terminal         {font-family: Verdana, Sans-serif;
                            font-size: 12px;
                            fill: #001400;
                            font-weight: bold;
                          }
    text.nonterminal      {font-family: Verdana, Sans-serif;
                            font-size: 12px;
                            fill: #001A00;
                            font-weight: normal;
                          }
    text.regexp           {font-family: Verdana, Sans-serif;
                            font-size: 12px;
                            fill: #001F00;
                            font-weight: normal;
                          }
    rect, circle, polygon {fill: #003300; stroke: #003300;}
    rect.terminal         {fill: #4DFF4D; stroke: #003300; stroke-width: 1;}
    rect.nonterminal      {fill: #9EFF9E; stroke: #003300; stroke-width: 1;}
    rect.text             {fill: none; stroke: none;}
    polygon.regexp        {fill: #C7FFC7; stroke: #003300; stroke-width: 1;}
  </style>
   </defs>
   <polygon points="9 17 1 13 1 21"/>
   <polygon points="17 17 9 13 9 21"/>
   <a xmlns:xlink="http://www.w3.org/1999/xlink"
       xlink:href="#User"
       xlink:title="User">
      <rect x="31" y="3" width="48" height="32"/>
      <rect x="29" y="1" width="48" height="32" class="nonterminal"/>
      <text class="nonterminal" x="39" y="21">User</text>
   </a>
   <a xmlns:xlink="http://www.w3.org/1999/xlink"
       xlink:href="#Ordering"
       xlink:title="Ordering">
      <rect x="99" y="3" width="74" height="32"/>
      <rect x="97" y="1" width="74" height="32" class="nonterminal"/>
      <text class="nonterminal" x="107" y="21">Ordering</text>
   </a>
   <path class="line"
          d="m17 17 h2 m0 0 h10 m48 0 h10 m0 0 h10 m74 0 h10 m3 0 h-3"/>
   <polygon points="191 17 199 13 199 21"/>
   <polygon points="191 17 183 13 183 21"/>
</svg>
